<?xml version="1.0" standalone="no"?>
<!DOCTYPE svg PUBLIC "-//W3C//DTD SVG 20010904//EN"
 "http://www.w3.org/TR/2001/REC-SVG-20010904/DTD/svg10.dtd">
<svg version="1.0" xmlns="http://www.w3.org/2000/svg"
 width="421.000000pt" height="415.000000pt" viewBox="0 0 421.000000 415.000000"
 preserveAspectRatio="xMidYMid meet">

<g transform="translate(0.000000,415.000000) scale(0.100000,-0.100000)"
fill="#000000" stroke="none">
<path d="M1 3893 c1 -175 4 -239 9 -198 30 228 227 423 450 448 19 2 -76 5
-212 5 l-248 2 1 -257z"/>
<path d="M3765 4140 c181 -28 340 -160 408 -338 l22 -57 5 -1600 5 -1600 3
1803 2 1802 -247 -1 c-156 -1 -229 -4 -198 -9z"/>
<path d="M455 4079 c-125 -18 -258 -108 -323 -218 -35 -61 -62 -146 -61 -195
l1 -41 8 48 c22 129 128 272 247 334 118 62 10 58 1783 58 l1625 0 66 -23
c180 -62 300 -203 329 -387 l8 -50 1 46 c1 61 -23 142 -65 210 -70 116 -191
197 -324 218 -80 13 -3206 13 -3295 0z"/>
<path d="M436 3875 c-70 -29 -128 -81 -164 -150 l-27 -50 0 -1595 0 -1595 23
-47 c33 -66 104 -133 171 -160 l56 -23 1605 0 c1548 0 1607 1 1659 19 76 26
161 111 190 189 l21 58 0 1559 0 1559 -22 58 c-29 77 -104 152 -181 181 l-58
22 -1607 0 -1607 0 -59 -25z m2608 -237 c59 -212 76 -283 71 -299 -5 -15 11
-38 63 -94 118 -126 175 -261 174 -414 -1 -98 -24 -186 -71 -266 -37 -63 -130
-167 -142 -159 -5 3 -8 1 -7 -4 5 -14 -60 -64 -73 -56 -7 4 -9 3 -5 -4 3 -6 2
-13 -4 -17 -5 -3 -10 -2 -10 3 0 5 -9 12 -19 15 -11 3 -22 17 -26 36 -3 17
-19 40 -33 52 -15 11 -34 35 -43 52 -41 81 -50 96 -64 107 -8 7 -25 30 -37 51
-12 22 -26 39 -30 39 -5 0 -15 15 -23 33 -17 41 -114 163 -127 159 -5 -1 -7 2
-3 8 4 6 3 19 -1 28 -6 14 -9 11 -14 -13 -7 -29 -8 -28 -9 10 -1 33 -13 63
-38 94 -2 3 -9 -3 -16 -12 -11 -15 -12 -14 -14 9 -1 19 1 23 8 13 10 -16 12
-8 3 15 -3 9 -10 14 -14 11 -5 -3 -6 4 -3 16 4 16 8 17 14 7 5 -7 9 -8 9 -3 0
11 -35 45 -46 45 -4 0 -1 -7 6 -15 6 -8 9 -23 5 -35 -6 -20 -8 -20 -31 11 -13
18 -24 38 -24 45 0 6 -8 18 -17 25 -15 12 -16 12 -10 -4 6 -16 4 -16 -20 3
-15 11 -33 31 -42 43 -14 20 -13 21 0 10 9 -7 19 -10 23 -6 4 4 4 -1 0 -12 -6
-16 -4 -18 6 -8 23 21 20 45 -9 82 -16 20 -36 52 -46 71 -10 19 -33 50 -51 70
-19 19 -34 43 -34 52 0 9 -12 26 -27 38 -16 12 -35 36 -44 53 -42 81 -50 95
-69 112 -11 10 -20 24 -20 31 0 7 -8 15 -17 17 -10 3 197 5 459 6 l477 1 15
-52z m-444 -704 c0 -8 -4 -13 -9 -10 -5 4 -11 1 -13 -6 -3 -7 -7 -5 -11 6 -4
10 -3 15 3 11 6 -3 10 -1 10 4 0 6 5 11 10 11 6 0 10 -7 10 -16z m0 -54 c0 -5
-5 -10 -11 -10 -5 0 -7 5 -4 10 3 6 8 10 11 10 2 0 4 -4 4 -10z"/>
<path d="M2443 3184 c3 -4 -1 -13 -9 -21 -8 -9 -12 -18 -9 -21 5 -6 34 27 35
41 0 4 -5 7 -12 7 -6 0 -9 -3 -5 -6z"/>
<path d="M2450 3150 c0 -5 4 -10 8 -10 4 0 18 -21 30 -46 13 -26 25 -44 27
-42 6 6 -48 108 -57 108 -5 0 -8 -4 -8 -10z"/>
<path d="M3043 2375 c0 -8 3 -13 5 -10 3 3 12 -1 21 -7 10 -8 9 -4 -3 10 -23
26 -23 26 -23 7z"/>
<path d="M4128 491 c-17 -127 -119 -270 -239 -338 -117 -66 -19 -63 -1781 -63
-1027 0 -1614 4 -1649 10 -186 35 -342 195 -380 390 -8 42 -8 40 -5 -18 11
-178 177 -357 365 -392 74 -14 3258 -14 3332 0 122 23 260 123 313 228 34 67
58 155 54 199 -3 35 -4 34 -10 -16z"/>
<path d="M4200 493 c0 -184 -151 -381 -348 -456 l-57 -22 -1660 -3 c-1510 -3
-1666 -1 -1730 13 -207 49 -369 230 -395 440 -5 38 -8 -38 -9 -202 l-1 -263
2105 0 2105 0 0 270 c0 149 -2 270 -5 270 -3 0 -5 -21 -5 -47z"/>
</g>
</svg>
